<svg width="82" height="25" viewBox="0 0 82 25" fill="none" xmlns="http://www.w3.org/2000/svg">
<g clip-path="url(#clip0)">
<path d="M27.8871 9.38334C26.214 9.38334 24.9524 10.7206 24.9524 12.4965C24.9524 14.2724 26.2273 15.6097 27.9172 15.6097C29.5897 15.6097 30.8514 14.2724 30.8514 12.4965C30.8514 10.7206 29.577 9.38334 27.8871 9.38334ZM36.3656 0.12674H0V25H36.3656L44.9535 12.5901L36.3656 0.12674ZM19.0151 16.4345L18.9308 16.5067C17.5732 17.6675 16.0014 18.2558 14.2594 18.2558C12.6124 18.2558 11.1265 17.6755 10.0759 16.6217C9.03471 15.5765 8.46059 14.1114 8.46059 12.4965C8.46059 10.9453 9.04368 9.50103 10.1039 8.43122C11.1795 7.33947 12.6484 6.73822 14.2468 6.73822C16.0491 6.73822 17.2954 7.17897 18.556 8.25897L18.7357 8.41303L16.9636 10.5644L16.7796 10.4098C16.0067 9.7599 15.3314 9.38334 14.1678 9.38334C12.6246 9.38334 11.3693 10.78 11.3693 12.4965C11.3693 14.3184 12.6161 15.6402 14.3337 15.6402C15.0896 15.6402 15.7618 15.4588 16.2861 15.1138V13.9568H13.9451V11.447H19.0151V16.4345ZM32.0961 16.5645C31.0052 17.6552 29.5102 18.2558 27.8871 18.2558C26.2638 18.2558 24.7721 17.6594 23.6923 16.5757C22.6289 15.5085 22.0431 14.0617 22.0431 12.4965C22.0383 11.7408 22.183 10.9917 22.4689 10.2932C22.7547 9.59459 23.1759 8.96065 23.7076 8.42853C24.7986 7.33784 26.2936 6.73978 27.9172 6.73978C29.541 6.73978 31.0316 7.33678 32.1115 8.41997C33.1749 9.48709 33.7607 10.934 33.7607 12.4992C33.7652 13.2545 33.6203 14.003 33.3344 14.7011C33.0486 15.3992 32.6276 16.0327 32.0961 16.5645Z" fill="black"/>
<path d="M8.68555 12.5169C8.68555 9.53634 10.9862 7.09502 14.133 7.09502C16.0032 7.09502 17.1313 7.60427 18.2149 8.5329L16.7751 10.2852C15.9736 9.61127 15.2611 9.22184 14.0588 9.22184C12.3963 9.22184 11.0753 10.7046 11.0753 12.5169C11.0753 14.434 12.3815 15.8418 14.222 15.8418C15.0532 15.8418 15.7954 15.6321 16.3743 15.2128V13.7151H14.0736V11.721H18.586V16.2741C17.5172 17.1877 16.0477 17.9366 14.1479 17.9366C10.9121 17.9366 8.68555 15.645 8.68555 12.5169Z" fill="white" stroke="white" stroke-miterlimit="10"/>
<path d="M22.4678 12.5901C22.4678 9.60957 24.8003 7.16826 28.0043 7.16826C31.2083 7.16826 33.5111 9.57963 33.5111 12.5901C33.5111 15.5706 31.1786 18.0119 27.9746 18.0119C24.7706 18.0119 22.4678 15.6006 22.4678 12.5901ZM31.1214 12.5901C31.1214 10.7928 29.8152 9.29507 27.9746 9.29507C26.134 9.29507 24.8576 10.7628 24.8576 12.5901C24.8576 14.3874 26.1638 15.8851 28.0043 15.8851C29.8448 15.8851 31.1214 14.4173 31.1214 12.5901Z" fill="white" stroke="white" stroke-miterlimit="10"/>
<path d="M82.1428 0H45.8223V24.8732H82.1428V0Z" fill="#FF6C00"/>
<path d="M57.0127 7.45503H59.2985V17.9392H57.0127V7.45503Z" fill="white" stroke="white" stroke-miterlimit="10"/>
<path d="M66.06 9.58184H62.8984V7.45503H71.5071V9.58184H68.3456V17.9392H66.06V9.58184Z" fill="white" stroke="white" stroke-miterlimit="10"/>
</g>
<defs>
<clipPath id="clip0">
<rect width="82" height="25" fill="white"/>
</clipPath>
</defs>
</svg>
