<svg aria-hidden="true" style="position:absolute;width:0;height:0" xmlns="http://www.w3.org/2000/svg" overflow="hidden">
  <defs>
  <symbol id="icon-dots" viewBox="0 0 156 32">
<path fill="#4d6fd3" style="fill: var(--color1, #4d6fd3)" d="M16.020 31.983c8.84 0 16.006-7.16 16.006-15.992s-7.166-15.992-16.006-15.992-16.006 7.16-16.006 15.992c0 8.832 7.166 15.992 16.006 15.992z"></path>
<path fill="#fd9029" style="fill: var(--color2, #fd9029)" d="M76.006 31.983c8.84 0 16.006-7.16 16.006-15.992s-7.166-15.992-16.006-15.992c-8.84 0-16.006 7.16-16.006 15.992s7.166 15.992 16.006 15.992z"></path>
<path fill="#d24cb1" style="fill: var(--color3, #d24cb1)" d="M136.006 31.983c8.84 0 16.006-7.16 16.006-15.992s-7.166-15.992-16.006-15.992c-8.84 0-16.006 7.16-16.006 15.992s7.166 15.992 16.006 15.992z"></path>
</symbol>
  <symbol id="icon-mobile-menu" viewBox="0 0 53 32">
<path fill="#4141e4" style="fill: var(--color1, #4141e4)" d="M0 0h52.437v3.429h-52.437v-3.429zM0 14.117h52.437v3.429h-52.437v-3.429zM52.437 28.236h-52.437v3.429h52.437v-3.429z"></path>
</symbol>
    <symbol id="icon-close-menu" viewBox="0 0 32 32"><path d="M23.959 22.043l-6.23-6.193 6.089-6.089c.531-.531.531-1.385 0-1.915s-1.385-.531-1.915 0l-6.052 6.09-5.949-5.949c-.531-.531-1.385-.531-1.915 0s-.53 1.385 0 1.915l5.939 5.939-6.071 6.071c-.53.53-.531 1.385 0 1.915s1.385.53 1.915 0l6.071-6.071 6.202 6.202c.531.531 1.385.53 1.915 0s.526-1.39 0-1.916z"/></symbol>
    <symbol id="icon-menu" viewBox="0 0 66 32"><path d="M62.002 4H2.001a2 2 0 010-4h60.001a2 2 0 010 4zM2.001 14h60.001a2 2 0 010 4H2.001a2 2 0 010-4zM2.001 28h40.001a2 2 0 010 4H2.001a2 2 0 010-4z"/>
    </symbol>
    <symbol id="icon-shuttle" viewBox="0 0 32 32">
<path fill="#e45a6e" style="fill: var(--color1, #e45a6e)" d="M13.862 8.72c-0.183-0.305-0.522-0.48-0.877-0.453l-7.618 0.588c-0.771 0.060-1.458 0.464-1.885 1.109l-3.197 4.836c-0.324 0.489-0.375 1.102-0.138 1.638s0.725 0.91 1.305 1l6.177 0.957c0.048 0.007 0.096 0.011 0.144 0.011 0.316-0 0.616-0.161 0.79-0.433l5.285-8.268c0.191-0.3 0.197-0.681 0.014-0.986z"></path>
<path fill="#d82e44" style="fill: var(--color2, #d82e44)" d="M23.279 18.137c-0.305-0.183-0.687-0.177-0.987 0.014l-8.268 5.285c-0.313 0.2-0.478 0.566-0.422 0.933l0.957 6.178c0.090 0.58 0.464 1.067 1 1.305 0.223 0.099 0.459 0.147 0.695 0.147 0.33 0 0.658-0.096 0.944-0.285l4.836-3.197c0.645-0.427 1.050-1.114 1.109-1.885l0.589-7.618c0.027-0.354-0.148-0.694-0.453-0.877z"></path>
<path fill="#f1f1fb" style="fill: var(--color3, #f1f1fb)" d="M12.054 25.766c0.373 0.373 0.903 0.548 1.424 0.461 7.632-1.276 13.671-7.595 15.97-12.040 2.553-4.936 2.648-10.152 2.514-12.598-0.046-0.838-0.714-1.506-1.552-1.552-2.446-0.133-7.662-0.039-12.598 2.514-4.445 2.299-10.764 8.338-12.040 15.97-0.087 0.52 0.088 1.051 0.461 1.424l5.821 5.821z"></path>
<path fill="#d7d6fb" style="fill: var(--color4, #d7d6fb)" d="M31.484 0.515l-22.34 22.34 2.911 2.911c0.373 0.373 0.903 0.548 1.424 0.461 7.632-1.276 13.671-7.595 15.97-12.040 2.553-4.936 2.648-10.152 2.514-12.598-0.023-0.419-0.201-0.796-0.479-1.073z"></path>
<path fill="#466288" style="fill: var(--color5, #466288)" d="M21.92 14.764c-1.2 0-2.401-0.457-3.314-1.371-0.885-0.885-1.373-2.063-1.373-3.315s0.488-2.429 1.373-3.314c1.827-1.828 4.801-1.828 6.629 0 0.885 0.885 1.373 2.063 1.373 3.314s-0.488 2.429-1.373 3.315c-0.914 0.914-2.114 1.371-3.315 1.371zM19.269 7.427v0z"></path>
<path fill="#466288" style="fill: var(--color5, #466288)" d="M5.772 18.521c-0.087 0.52 0.088 1.051 0.461 1.424l5.821 5.821c0.373 0.373 0.903 0.548 1.424 0.461 1.661-0.278 3.246-0.794 4.734-1.478l-10.961-10.961c-0.684 1.488-1.201 3.073-1.478 4.733z"></path>
<path fill="#fdb43a" style="fill: var(--color6, #fdb43a)" d="M0.957 26.37c0.24 0 0.48-0.092 0.663-0.275l3.061-3.061c0.366-0.366 0.366-0.96 0-1.326s-0.96-0.366-1.326 0l-3.061 3.061c-0.366 0.366-0.366 0.96 0 1.326 0.183 0.183 0.423 0.275 0.663 0.275z"></path>
<path fill="#fdb43a" style="fill: var(--color6, #fdb43a)" d="M7.485 24.514c-0.366-0.366-0.96-0.366-1.326 0l-5.885 5.885c-0.366 0.366-0.366 0.96 0 1.326 0.183 0.183 0.423 0.275 0.663 0.275s0.48-0.092 0.663-0.275l5.885-5.885c0.366-0.366 0.366-0.96 0-1.326z"></path>
<path fill="#f57a21" style="fill: var(--color7, #f57a21)" d="M10.29 27.319c-0.366-0.366-0.96-0.366-1.326 0l-3.061 3.061c-0.366 0.366-0.366 0.96 0 1.326 0.183 0.183 0.423 0.275 0.663 0.275s0.48-0.092 0.663-0.275l3.061-3.061c0.366-0.366 0.366-0.96 0-1.326z"></path>
<path fill="#f57a21" style="fill: var(--color7, #f57a21)" d="M0.275 31.724c0.183 0.183 0.423 0.275 0.663 0.275s0.48-0.092 0.663-0.275l5.885-5.885c0.366-0.366 0.366-0.96 0-1.326l-7.21 7.211z"></path>
<path fill="#354a67" style="fill: var(--color8, #354a67)" d="M9.143 22.856l2.911 2.911c0.373 0.373 0.903 0.548 1.424 0.461 1.661-0.278 3.246-0.794 4.734-1.478l-5.48-5.481-3.588 3.587z"></path>
<path fill="#354a67" style="fill: var(--color8, #354a67)" d="M18.606 13.393c0.914 0.914 2.114 1.371 3.315 1.371s2.401-0.457 3.315-1.371c0.885-0.885 1.373-2.063 1.373-3.315s-0.488-2.429-1.373-3.315l-6.629 6.629z"></path>
<path fill="#4bbefd" style="fill: var(--color9, #4bbefd)" d="M21.92 7.267c-0.72 0-1.44 0.274-1.989 0.822-0.531 0.531-0.824 1.237-0.824 1.989s0.293 1.457 0.824 1.989c1.097 1.097 2.881 1.097 3.977 0 0.531-0.531 0.824-1.238 0.824-1.989s-0.293-1.457-0.824-1.989c-0.548-0.548-1.268-0.822-1.989-0.822z"></path>
<path fill="#0590fb" style="fill: var(--color10, #0590fb)" d="M23.909 8.090l-3.977 3.977c1.097 1.097 2.881 1.097 3.977 0 0.531-0.531 0.824-1.238 0.824-1.989s-0.293-1.457-0.824-1.989z"></path>
</symbol>
<symbol id="icon-css" viewBox="0 0 32 32">
<path fill="#cfd2fc" style="fill: var(--color1, #cfd2fc)" d="M24.5 30.5h-17c-0.796 0-1.559-0.316-2.121-0.879s-0.879-1.326-0.879-2.121v-23c0-0.796 0.316-1.559 0.879-2.121s1.326-0.879 2.121-0.879h14l6 6v20c0 0.796-0.316 1.559-0.879 2.121s-1.326 0.879-2.121 0.879z"></path>
<path fill="#d24cb1" style="fill: var(--color2, #d24cb1)" d="M4.5 22.5h23v5c0 0.796-0.316 1.559-0.879 2.121s-1.326 0.879-2.121 0.879h-17c-0.796 0-1.559-0.316-2.121-0.879s-0.879-1.326-0.879-2.121v-5z"></path>
<path fill="#8690fa" style="fill: var(--color3, #8690fa)" d="M27.5 7.5h-3c-0.796 0-1.559-0.316-2.121-0.879s-0.879-1.326-0.879-2.121v-3l6 6z"></path>
<path fill="#8690fa" style="fill: var(--color3, #8690fa)" d="M16 13c0.276 0 0.5-0.224 0.5-0.5s-0.224-0.5-0.5-0.5-0.5 0.224-0.5 0.5c0 0.276 0.224 0.5 0.5 0.5z"></path>
<path fill="#8690fa" style="fill: var(--color3, #8690fa)" d="M16 15c0.276 0 0.5-0.224 0.5-0.5s-0.224-0.5-0.5-0.5-0.5 0.224-0.5 0.5c0 0.276 0.224 0.5 0.5 0.5z"></path>
<path fill="#8690fa" style="fill: var(--color3, #8690fa)" d="M9.5 14c-0.133 0-0.26-0.053-0.354-0.146s-0.146-0.221-0.146-0.354c0-0.133 0.053-0.26 0.146-0.354s0.221-0.146 0.354-0.146c0.133-0 0.26-0.053 0.353-0.147s0.146-0.221 0.147-0.353v-2c0-0.398 0.159-0.779 0.44-1.060s0.662-0.439 1.060-0.44c0.133 0 0.26 0.053 0.354 0.146s0.146 0.221 0.146 0.354c0 0.133-0.053 0.26-0.146 0.354s-0.221 0.146-0.354 0.146c-0.133 0-0.26 0.053-0.353 0.147s-0.146 0.221-0.147 0.353v2c-0 0.398-0.159 0.779-0.44 1.060s-0.662 0.439-1.060 0.44z"></path>
<path fill="#8690fa" style="fill: var(--color3, #8690fa)" d="M11.5 18c-0.398-0-0.779-0.159-1.060-0.44s-0.439-0.662-0.44-1.060v-2c-0-0.133-0.053-0.26-0.147-0.353s-0.221-0.146-0.353-0.147c-0.133 0-0.26-0.053-0.354-0.146s-0.146-0.221-0.146-0.354c0-0.133 0.053-0.26 0.146-0.354s0.221-0.146 0.354-0.146c0.398 0 0.779 0.159 1.060 0.44s0.439 0.662 0.44 1.060v2c0 0.133 0.053 0.26 0.147 0.353s0.221 0.146 0.353 0.147c0.133 0 0.26 0.053 0.354 0.146s0.146 0.221 0.146 0.354c0 0.133-0.053 0.26-0.146 0.354s-0.221 0.146-0.354 0.146z"></path>
<path fill="#8690fa" style="fill: var(--color3, #8690fa)" d="M20.5 18c-0.133 0-0.26-0.053-0.354-0.146s-0.146-0.221-0.146-0.354c0-0.133 0.053-0.26 0.146-0.354s0.221-0.146 0.354-0.146c0.133-0 0.26-0.053 0.353-0.147s0.146-0.221 0.147-0.353v-2c0-0.398 0.159-0.779 0.44-1.060s0.662-0.439 1.060-0.44c0.133 0 0.26 0.053 0.354 0.146s0.146 0.221 0.146 0.354c0 0.133-0.053 0.26-0.146 0.354s-0.221 0.146-0.354 0.146c-0.133 0-0.26 0.053-0.353 0.147s-0.146 0.221-0.147 0.353v2c-0 0.398-0.159 0.779-0.44 1.060s-0.662 0.439-1.060 0.44z"></path>
<path fill="#8690fa" style="fill: var(--color3, #8690fa)" d="M22.5 14c-0.398-0-0.779-0.159-1.060-0.44s-0.439-0.662-0.44-1.060v-2c-0-0.133-0.053-0.26-0.147-0.353s-0.221-0.146-0.353-0.147c-0.133 0-0.26-0.053-0.354-0.146s-0.146-0.221-0.146-0.354c0-0.133 0.053-0.26 0.146-0.354s0.221-0.146 0.354-0.146c0.398 0 0.779 0.159 1.060 0.44s0.439 0.662 0.44 1.060v2c0 0.133 0.053 0.26 0.147 0.353s0.221 0.146 0.353 0.147c0.133 0 0.26 0.053 0.354 0.146s0.146 0.221 0.146 0.354c0 0.133-0.053 0.26-0.146 0.354s-0.221 0.146-0.354 0.146z"></path>
<path fill="#fff" style="fill: var(--color4, #fff)" d="M16 25h1c0.133 0 0.26-0.053 0.354-0.146s0.146-0.221 0.146-0.354c0-0.133-0.053-0.26-0.146-0.354s-0.221-0.146-0.354-0.146h-1c-0.398 0-0.779 0.158-1.061 0.439s-0.439 0.663-0.439 1.061c0 0.398 0.158 0.779 0.439 1.061s0.663 0.439 1.061 0.439c0.133 0 0.26 0.053 0.354 0.146s0.146 0.221 0.146 0.354c0 0.133-0.053 0.26-0.146 0.354s-0.221 0.146-0.354 0.146h-1c-0.133 0-0.26 0.053-0.354 0.146s-0.146 0.221-0.146 0.354c0 0.133 0.053 0.26 0.146 0.354s0.221 0.146 0.354 0.146h1c0.398 0 0.779-0.158 1.061-0.439s0.439-0.663 0.439-1.061c0-0.398-0.158-0.779-0.439-1.061s-0.663-0.439-1.061-0.439c-0.133 0-0.26-0.053-0.354-0.146s-0.146-0.221-0.146-0.354c0-0.133 0.053-0.26 0.146-0.354s0.221-0.146 0.354-0.146z"></path>
<path fill="#fff" style="fill: var(--color4, #fff)" d="M20 25h1c0.133 0 0.26-0.053 0.354-0.146s0.146-0.221 0.146-0.354c0-0.133-0.053-0.26-0.146-0.354s-0.221-0.146-0.354-0.146h-1c-0.398 0-0.779 0.158-1.061 0.439s-0.439 0.663-0.439 1.061c0 0.398 0.158 0.779 0.439 1.061s0.663 0.439 1.061 0.439c0.133 0 0.26 0.053 0.354 0.146s0.146 0.221 0.146 0.354c0 0.133-0.053 0.26-0.146 0.354s-0.221 0.146-0.354 0.146h-1c-0.133 0-0.26 0.053-0.354 0.146s-0.146 0.221-0.146 0.354c0 0.133 0.053 0.26 0.146 0.354s0.221 0.146 0.354 0.146h1c0.398 0 0.779-0.158 1.061-0.439s0.439-0.663 0.439-1.061c0-0.398-0.158-0.779-0.439-1.061s-0.663-0.439-1.061-0.439c-0.133 0-0.26-0.053-0.354-0.146s-0.146-0.221-0.146-0.354c0-0.133 0.053-0.26 0.146-0.354s0.221-0.146 0.354-0.146z"></path>
<path fill="#fff" style="fill: var(--color4, #fff)" d="M12.5 25c0.099 0 0.197 0.023 0.287 0.066 0.12 0.056 0.257 0.063 0.382 0.018s0.227-0.137 0.283-0.257c0.057-0.12 0.063-0.257 0.018-0.382s-0.137-0.227-0.257-0.283c-0.223-0.106-0.466-0.161-0.713-0.161-1.103 0-2 1.121-2 2.5s0.897 2.5 2 2.5c0.247-0 0.49-0.055 0.713-0.161 0.059-0.028 0.113-0.067 0.157-0.116s0.078-0.105 0.101-0.167c0.022-0.062 0.032-0.127 0.029-0.193s-0.019-0.13-0.047-0.189c-0.028-0.059-0.067-0.113-0.116-0.157s-0.105-0.078-0.167-0.101c-0.062-0.022-0.127-0.032-0.193-0.029s-0.13 0.019-0.189 0.047c-0.090 0.043-0.188 0.066-0.287 0.066-0.542 0-1-0.687-1-1.5s0.458-1.5 1-1.5z"></path>
</symbol>
<symbol id="icon-js" viewBox="0 0 32 32">
<path fill="#cfd2fc" style="fill: var(--color1, #cfd2fc)" d="M24.5 30.5h-17c-0.796 0-1.559-0.316-2.121-0.879s-0.879-1.326-0.879-2.121v-23c0-0.796 0.316-1.559 0.879-2.121s1.326-0.879 2.121-0.879h14l6 6v20c0 0.796-0.316 1.559-0.879 2.121s-1.326 0.879-2.121 0.879z"></path>
<path fill="#ff7111" style="fill: var(--color5, #ff7111)" d="M4.5 22.5h23v5c0 0.796-0.316 1.559-0.879 2.121s-1.326 0.879-2.121 0.879h-17c-0.796 0-1.559-0.316-2.121-0.879s-0.879-1.326-0.879-2.121v-5z"></path>
<path fill="#8690fa" style="fill: var(--color3, #8690fa)" d="M27.5 7.5h-3c-0.796 0-1.559-0.316-2.121-0.879s-0.879-1.326-0.879-2.121v-3l6 6z"></path>
<path fill="#8690fa" style="fill: var(--color3, #8690fa)" d="M18 14c0.276 0 0.5-0.224 0.5-0.5s-0.224-0.5-0.5-0.5-0.5 0.224-0.5 0.5c0 0.276 0.224 0.5 0.5 0.5z"></path>
<path fill="#8690fa" style="fill: var(--color3, #8690fa)" d="M14 14c0.276 0 0.5-0.224 0.5-0.5s-0.224-0.5-0.5-0.5-0.5 0.224-0.5 0.5c0 0.276 0.224 0.5 0.5 0.5z"></path>
<path fill="#8690fa" style="fill: var(--color3, #8690fa)" d="M16 14c0.276 0 0.5-0.224 0.5-0.5s-0.224-0.5-0.5-0.5-0.5 0.224-0.5 0.5c0 0.276 0.224 0.5 0.5 0.5z"></path>
<path fill="#8690fa" style="fill: var(--color3, #8690fa)" d="M11.5 17c-0.133-0-0.26-0.053-0.353-0.147s-0.146-0.221-0.147-0.353v-2c0-0.369-0.136-0.725-0.383-1 0.247-0.275 0.383-0.631 0.383-1v-2c0-0.133 0.053-0.26 0.147-0.353s0.221-0.146 0.353-0.147c0.133 0 0.26-0.053 0.354-0.146s0.146-0.221 0.146-0.354c0-0.133-0.053-0.26-0.146-0.354s-0.221-0.146-0.354-0.146c-0.398 0-0.779 0.159-1.060 0.44s-0.439 0.662-0.44 1.060v2c-0 0.133-0.053 0.26-0.147 0.353s-0.221 0.146-0.353 0.147c-0.133 0-0.26 0.053-0.354 0.146s-0.146 0.221-0.146 0.354c0 0.133 0.053 0.26 0.146 0.354s0.221 0.146 0.354 0.146c0.133 0 0.26 0.053 0.353 0.147s0.146 0.221 0.147 0.353v2c0 0.398 0.159 0.779 0.44 1.060s0.662 0.439 1.060 0.44c0.133 0 0.26-0.053 0.354-0.146s0.146-0.221 0.146-0.354c0-0.133-0.053-0.26-0.146-0.354s-0.221-0.146-0.354-0.146z"></path>
<path fill="#8690fa" style="fill: var(--color3, #8690fa)" d="M22.5 13c-0.133-0-0.26-0.053-0.353-0.147s-0.146-0.221-0.147-0.353v-2c-0-0.398-0.159-0.779-0.44-1.060s-0.662-0.439-1.060-0.44c-0.133 0-0.26 0.053-0.354 0.146s-0.146 0.221-0.146 0.354c0 0.133 0.053 0.26 0.146 0.354s0.221 0.146 0.354 0.146c0.133 0 0.26 0.053 0.353 0.147s0.146 0.221 0.147 0.353v2c-0 0.369 0.136 0.726 0.383 1-0.247 0.274-0.383 0.631-0.383 1v2c-0 0.133-0.053 0.26-0.147 0.353s-0.221 0.146-0.353 0.147c-0.133 0-0.26 0.053-0.354 0.146s-0.146 0.221-0.146 0.354c0 0.133 0.053 0.26 0.146 0.354s0.221 0.146 0.354 0.146c0.398-0 0.779-0.159 1.060-0.44s0.439-0.662 0.44-1.060v-2c0-0.133 0.053-0.26 0.147-0.353s0.221-0.146 0.353-0.147c0.133 0 0.26-0.053 0.354-0.146s0.146-0.221 0.146-0.354c0-0.133-0.053-0.26-0.146-0.354s-0.221-0.146-0.354-0.146z"></path>
<path fill="#fff" style="fill: var(--color4, #fff)" d="M15 24c-0.133 0-0.26 0.053-0.354 0.146s-0.146 0.221-0.146 0.354v3c0 0.133-0.053 0.26-0.146 0.354s-0.221 0.146-0.354 0.146c-0.133 0-0.26-0.053-0.354-0.146s-0.146-0.221-0.146-0.354c0-0.133-0.053-0.26-0.146-0.354s-0.221-0.146-0.354-0.146c-0.133 0-0.26 0.053-0.354 0.146s-0.146 0.221-0.146 0.354c0 0.398 0.158 0.779 0.439 1.061s0.663 0.439 1.061 0.439 0.779-0.158 1.061-0.439c0.281-0.281 0.439-0.663 0.439-1.061v-3c0-0.133-0.053-0.26-0.146-0.354s-0.221-0.146-0.354-0.146z"></path>
<path fill="#fff" style="fill: var(--color4, #fff)" d="M18 25h1c0.133 0 0.26-0.053 0.354-0.146s0.146-0.221 0.146-0.354c0-0.133-0.053-0.26-0.146-0.354s-0.221-0.146-0.354-0.146h-1c-0.398 0-0.779 0.158-1.061 0.439s-0.439 0.663-0.439 1.061c0 0.398 0.158 0.779 0.439 1.061s0.663 0.439 1.061 0.439c0.133 0 0.26 0.053 0.354 0.146s0.146 0.221 0.146 0.354c0 0.133-0.053 0.26-0.146 0.354s-0.221 0.146-0.354 0.146h-1c-0.133 0-0.26 0.053-0.354 0.146s-0.146 0.221-0.146 0.354c0 0.133 0.053 0.26 0.146 0.354s0.221 0.146 0.354 0.146h1c0.398 0 0.779-0.158 1.061-0.439s0.439-0.663 0.439-1.061c0-0.398-0.158-0.779-0.439-1.061s-0.663-0.439-1.061-0.439c-0.133 0-0.26-0.053-0.354-0.146s-0.146-0.221-0.146-0.354c0-0.133 0.053-0.26 0.146-0.354s0.221-0.146 0.354-0.146z"></path>
</symbol>
<symbol id="icon-php" viewBox="0 0 32 32">
<path fill="#cfd2fc" style="fill: var(--color1, #cfd2fc)" d="M24.5 30.5h-17c-0.796 0-1.559-0.316-2.121-0.879s-0.879-1.326-0.879-2.121v-23c0-0.796 0.316-1.559 0.879-2.121s1.326-0.879 2.121-0.879h14l6 6v20c0 0.796-0.316 1.559-0.879 2.121s-1.326 0.879-2.121 0.879z"></path>
<path fill="#5153ff" style="fill: var(--color6, #5153ff)" d="M4.5 22.5h23v5c0 0.796-0.316 1.559-0.879 2.121s-1.326 0.879-2.121 0.879h-17c-0.796 0-1.559-0.316-2.121-0.879s-0.879-1.326-0.879-2.121v-5z"></path>
<path fill="#8690fa" style="fill: var(--color3, #8690fa)" d="M27.5 7.5h-3c-0.796 0-1.559-0.316-2.121-0.879s-0.879-1.326-0.879-2.121v-3l6 6z"></path>
<path fill="#8690fa" style="fill: var(--color3, #8690fa)" d="M12 17c-0.066 0-0.131-0.013-0.191-0.038s-0.116-0.062-0.162-0.108l-3-3c-0.046-0.046-0.083-0.102-0.108-0.162s-0.038-0.126-0.038-0.191 0.013-0.131 0.038-0.191c0.025-0.061 0.062-0.116 0.108-0.162l3-3c0.094-0.094 0.221-0.146 0.354-0.146s0.26 0.053 0.354 0.146c0.094 0.094 0.146 0.221 0.146 0.354s-0.053 0.26-0.146 0.354l-2.646 2.646 2.646 2.646c0.070 0.070 0.118 0.159 0.137 0.256s0.009 0.198-0.028 0.289c-0.038 0.091-0.102 0.169-0.184 0.224s-0.179 0.084-0.278 0.084z"></path>
<path fill="#8690fa" style="fill: var(--color3, #8690fa)" d="M20 17c-0.099 0-0.196-0.029-0.278-0.084s-0.146-0.133-0.184-0.224c-0.038-0.091-0.048-0.192-0.028-0.289s0.067-0.186 0.137-0.256l2.646-2.646-2.646-2.646c-0.094-0.094-0.146-0.221-0.146-0.354s0.053-0.26 0.146-0.354c0.094-0.094 0.221-0.146 0.354-0.146s0.26 0.053 0.354 0.146l3 3c0.046 0.046 0.083 0.102 0.108 0.162s0.038 0.126 0.038 0.191c0 0.066-0.013 0.131-0.038 0.191s-0.062 0.116-0.108 0.162l-3 3c-0.046 0.047-0.101 0.083-0.162 0.109s-0.126 0.038-0.191 0.038z"></path>
<path fill="#8690fa" style="fill: var(--color3, #8690fa)" d="M16 18c0.276 0 0.5-0.224 0.5-0.5s-0.224-0.5-0.5-0.5-0.5 0.224-0.5 0.5c0 0.276 0.224 0.5 0.5 0.5z"></path>
<path fill="#8690fa" style="fill: var(--color3, #8690fa)" d="M16 16c-0.133 0-0.26-0.053-0.354-0.146s-0.146-0.221-0.146-0.354v-2c0-0.133 0.053-0.26 0.146-0.354s0.221-0.146 0.354-0.146c0.297 0 0.587-0.088 0.833-0.253s0.439-0.399 0.552-0.673c0.114-0.274 0.143-0.576 0.085-0.867s-0.201-0.558-0.41-0.768-0.477-0.353-0.768-0.411c-0.291-0.058-0.592-0.028-0.867 0.085s-0.508 0.306-0.673 0.553c-0.165 0.247-0.253 0.537-0.253 0.833 0 0.133-0.053 0.26-0.146 0.354s-0.221 0.146-0.354 0.146c-0.133 0-0.26-0.053-0.354-0.146s-0.146-0.221-0.146-0.354c0-0.473 0.134-0.936 0.387-1.336s0.614-0.72 1.041-0.922 0.903-0.28 1.373-0.223c0.47 0.057 0.913 0.246 1.28 0.545s0.64 0.696 0.79 1.145c0.15 0.449 0.169 0.931 0.056 1.39s-0.354 0.877-0.696 1.205c-0.341 0.328-0.768 0.552-1.232 0.646v1.55c0 0.133-0.053 0.26-0.146 0.354s-0.221 0.146-0.354 0.146z"></path>
<path fill="#fff" style="fill: var(--color4, #fff)" d="M20 24h-1c-0.133 0-0.26 0.053-0.354 0.146s-0.146 0.221-0.146 0.354v4c0 0.133 0.053 0.26 0.146 0.354s0.221 0.146 0.354 0.146c0.133 0 0.26-0.053 0.354-0.146s0.146-0.221 0.146-0.354v-1.5h0.5c0.398 0 0.779-0.158 1.061-0.439s0.439-0.663 0.439-1.061c0-0.398-0.158-0.779-0.439-1.061s-0.663-0.439-1.061-0.439zM20 26h-0.5v-1h0.5c0.133 0 0.26 0.053 0.354 0.146s0.146 0.221 0.146 0.354c0 0.133-0.053 0.26-0.146 0.354s-0.221 0.146-0.354 0.146z"></path>
<path fill="#fff" style="fill: var(--color4, #fff)" d="M12 24h-1c-0.133 0-0.26 0.053-0.354 0.146s-0.146 0.221-0.146 0.354v4c0 0.133 0.053 0.26 0.146 0.354s0.221 0.146 0.354 0.146c0.133 0 0.26-0.053 0.354-0.146s0.146-0.221 0.146-0.354v-1.5h0.5c0.398 0 0.779-0.158 1.061-0.439s0.439-0.663 0.439-1.061c0-0.398-0.158-0.779-0.439-1.061s-0.663-0.439-1.061-0.439zM12 26h-0.5v-1h0.5c0.133 0 0.26 0.053 0.354 0.146s0.146 0.221 0.146 0.354c0 0.133-0.053 0.26-0.146 0.354s-0.221 0.146-0.354 0.146z"></path>
<path fill="#fff" style="fill: var(--color4, #fff)" d="M17 24c-0.133 0-0.26 0.053-0.354 0.146s-0.146 0.221-0.146 0.354v1.5h-1v-1.5c0-0.133-0.053-0.26-0.146-0.354s-0.221-0.146-0.354-0.146c-0.133 0-0.26 0.053-0.354 0.146s-0.146 0.221-0.146 0.354v4c0 0.133 0.053 0.26 0.146 0.354s0.221 0.146 0.354 0.146c0.133 0 0.26-0.053 0.354-0.146s0.146-0.221 0.146-0.354v-1.5h1v1.5c0 0.133 0.053 0.26 0.146 0.354s0.221 0.146 0.354 0.146c0.133 0 0.26-0.053 0.354-0.146s0.146-0.221 0.146-0.354v-4c0-0.133-0.053-0.26-0.146-0.354s-0.221-0.146-0.354-0.146z"></path>
</symbol>
<symbol id="icon-blue" viewBox="0 0 32 32">
<path fill="#4d6fd3" style="fill: var(--color1, #4d6fd3)" d="M32 16c0 8.837-7.163 16-16 16s-16-7.163-16-16c0-8.837 7.163-16 16-16s16 7.163 16 16z"></path>
</symbol>
<symbol id="icon-orange" viewBox="0 0 32 32">
<path fill="#fd9029" style="fill: var(--color2, #fd9029)" d="M32 16c0 8.837-7.163 16-16 16s-16-7.163-16-16c0-8.837 7.163-16 16-16s16 7.163 16 16z"></path>
</symbol>
<symbol id="icon-pink" viewBox="0 0 32 32">
<path fill="#d24cb1" style="fill: var(--color3, #d24cb1)" d="M32 16c0 8.837-7.163 16-16 16s-16-7.163-16-16c0-8.837 7.163-16 16-16s16 7.163 16 16z"></path>
</symbol>
  </defs>
</svg>