<svg aria-hidden="true" style="position: absolute; width: 0; height: 0; overflow: hidden;" version="1.1" xmlns="http://www.w3.org/2000/svg" xmlns:xlink="http://www.w3.org/1999/xlink">
    <defs>
        <symbol id="slider-right" viewBox="0 0 105 32">
            <path d="M1.143 14.973c-0.631 0-1.143 0.512-1.143 1.143v0c0 0.631 0.512 1.143 1.143 1.143v0h100.799c0.631 0 1.143-0.512 1.143-1.143v0c0-0.631-0.512-1.143-1.143-1.143v0z"></path>
            <path d="M90.25 1.143c-0.009-0-0.020-0-0.031-0-0.305 0-0.581 0.119-0.786 0.313l0.001-0c-0.22 0.209-0.358 0.504-0.358 0.83 0 0.305 0.119 0.581 0.313 0.786l-0-0.001 12.603 13.263-12.603 13.263c-0.194 0.204-0.313 0.481-0.313 0.786 0 0.327 0.137 0.622 0.357 0.83l0.001 0c0.205 0.195 0.482 0.315 0.788 0.315 0.326 0 0.62-0.136 0.828-0.355l0-0 13.308-14.013c0.173-0.199 0.279-0.462 0.279-0.748 0-0.026-0.001-0.051-0.003-0.076l0 0.003c0.002-0.024 0.003-0.053 0.003-0.081 0-0.287-0.106-0.55-0.281-0.75l0.001 0.001-13.308-14.009c-0.202-0.213-0.484-0.348-0.797-0.357l-0.002-0z"></path>
        </symbol>
        <symbol id="slider-left" viewBox="0 0 105 32">
            <path d="M104 14.974c0.631 0 1.143 0.512 1.143 1.143v0c0 0.631-0.512 1.143-1.143 1.143v0h-100.799c-0.631 0-1.143-0.512-1.143-1.143v0c0-0.631 0.512-1.143 1.143-1.143v0z"></path>
            <path d="M14.893 1.143c-0.315 0.009-0.597 0.144-0.799 0.357l-0.001 0.001-13.308 14.009c-0.194 0.204-0.313 0.481-0.313 0.786 0 0.016 0 0.031 0.001 0.046l-0-0.002c-0 0.011-0.001 0.023-0.001 0.036 0 0.305 0.119 0.581 0.314 0.786l-0-0 13.308 14.013c0.209 0.219 0.502 0.355 0.828 0.355 0.306 0 0.583-0.12 0.788-0.316l-0 0c0.22-0.209 0.358-0.504 0.358-0.83 0-0.305-0.119-0.581-0.313-0.786l0 0-12.603-13.263 12.603-13.263c0.194-0.204 0.313-0.481 0.313-0.786 0-0.327-0.137-0.622-0.357-0.83l-0.001-0c-0.204-0.194-0.481-0.313-0.786-0.313-0.011 0-0.022 0-0.033 0l0.002-0z"></path>
        </symbol>
        <symbol id="arrow-big" viewBox="0 0 224 32">
            <path d="M1.6 14.719c-0.884 0-1.6 0.716-1.6 1.6v0c0 0.884 0.716 1.6 1.6 1.6v0h219.838c0.884 0 1.6-0.716 1.6-1.6v0c0-0.884-0.716-1.6-1.6-1.6v0z"></path>
            <path d="M208.637 1.6c-0.442 0-0.842 0.179-1.131 0.469v0c-0.288 0.289-0.465 0.688-0.465 1.128 0 0.443 0.18 0.845 0.472 1.134l0 0 12.019 11.988-12.019 11.988c-0.291 0.29-0.472 0.691-0.472 1.134 0 0.44 0.178 0.839 0.465 1.128l-0-0c0.29 0.291 0.691 0.472 1.134 0.472 0.44 0 0.839-0.178 1.128-0.465l-0 0 13.119-13.087c0.29-0.29 0.469-0.69 0.469-1.132 0-0.013-0-0.026-0-0.039l0 0.002c0-0.011 0-0.024 0-0.037 0-0.442-0.179-0.842-0.469-1.132v0l-13.119-13.081c-0.29-0.29-0.689-0.469-1.131-0.469v0z"></path>
        </symbol>
        <symbol id="arrow-small" viewBox="0 0 176 32">
            <path d="M7.552 14.396c-1.473 0-2.667 1.194-2.667 2.667v0c0 1.473 1.194 2.667 2.667 2.667h160.896c1.473 0 2.667-1.194 2.667-2.667v0c0-1.473-1.194-2.667-2.667-2.667v0z"></path>
            <path d="M159.448 5.542c-0.479 0.482-0.776 1.146-0.776 1.88 0 0.739 0.301 1.408 0.786 1.891l0 0 7.906 7.896-7.906 7.885c-0.486 0.483-0.786 1.152-0.786 1.891 0 0.734 0.296 1.398 0.776 1.88l-0-0c0.483 0.482 1.149 0.781 1.885 0.781s1.403-0.298 1.885-0.781v0l9.781-9.75c0.248-0.255 0.446-0.56 0.577-0.898l0.006-0.018c0.119-0.291 0.188-0.629 0.188-0.982 0-0.003 0-0.005 0-0.008v0c0-0.002 0-0.005 0-0.007 0-0.354-0.069-0.691-0.194-1l0.006 0.018c-0.136-0.361-0.334-0.669-0.584-0.928l0.001 0.001-9.781-9.75c-0.483-0.482-1.149-0.781-1.885-0.781s-1.403 0.298-1.885 0.781v0z"></path>
        </symbol>
        <symbol id="modal-close" viewBox="0 0 32 32">
            <path d="M2.667 1.333c-0.368 0-0.701 0.149-0.943 0.391v0c-0.241 0.241-0.39 0.575-0.39 0.943s0.149 0.701 0.39 0.943l12.391 12.391-12.391 12.391c-0.241 0.241-0.39 0.575-0.39 0.943s0.149 0.701 0.39 0.943v0c0.241 0.241 0.575 0.39 0.943 0.39s0.701-0.149 0.943-0.39l12.391-12.391 12.391 12.391c0.241 0.241 0.575 0.39 0.943 0.39s0.701-0.149 0.943-0.39v0c0.241-0.241 0.39-0.575 0.39-0.943s-0.149-0.701-0.39-0.943l-12.391-12.391 12.391-12.391c0.241-0.241 0.39-0.575 0.39-0.943s-0.149-0.701-0.39-0.943v0c-0.241-0.241-0.575-0.39-0.943-0.39s-0.701 0.149-0.943 0.39l-12.391 12.391-12.391-12.391c-0.241-0.241-0.575-0.391-0.943-0.391v0z"></path>
        </symbol>
        <symbol id="tiktok" viewBox="0 0 32 32">
            <path d="M30.769 8.615c-2.122 0-4.157-0.843-5.657-2.343s-2.343-3.535-2.343-5.657c0-0.163-0.065-0.32-0.18-0.435s-0.272-0.18-0.435-0.18h-6.154c-0.163 0-0.32 0.065-0.435 0.18s-0.18 0.272-0.18 0.435v19.692c-0.001 0.661-0.178 1.309-0.515 1.877s-0.819 1.036-1.398 1.355c-0.579 0.318-1.232 0.476-1.893 0.455s-1.303-0.217-1.861-0.57c-0.558-0.353-1.011-0.849-1.312-1.437s-0.439-1.246-0.399-1.905c0.040-0.659 0.256-1.296 0.625-1.843s0.879-0.986 1.476-1.269c0.104-0.051 0.192-0.129 0.255-0.227s0.097-0.211 0.099-0.327v-6.4c0.001-0.091-0.017-0.181-0.055-0.263s-0.093-0.156-0.162-0.215c-0.069-0.059-0.15-0.102-0.238-0.125s-0.179-0.028-0.269-0.012c-2.074 0.372-3.999 1.327-5.549 2.754s-2.661 3.267-3.202 5.303c-0.541 2.036-0.491 4.185 0.146 6.193s1.833 3.794 3.449 5.146c1.616 1.352 3.584 2.216 5.673 2.489s4.213-0.055 6.122-0.946c1.909-0.891 3.525-2.309 4.657-4.086s1.734-3.84 1.735-5.947v-6.554c2.407 1.476 5.177 2.254 8 2.246 0.163 0 0.32-0.065 0.435-0.18s0.18-0.272 0.18-0.435v-6.154c0-0.163-0.065-0.32-0.18-0.435s-0.272-0.18-0.435-0.18zM30.154 14.754c-2.755-0.104-5.416-1.025-7.646-2.646-0.091-0.064-0.198-0.102-0.309-0.11s-0.222 0.014-0.322 0.064c-0.102 0.052-0.188 0.131-0.248 0.229s-0.091 0.21-0.090 0.325v7.692c-0.001 1.841-0.518 3.646-1.493 5.208s-2.368 2.82-4.022 3.63c-1.654 0.81-3.501 1.14-5.333 0.953s-3.574-0.885-5.030-2.013-2.565-2.641-3.204-4.369c-0.638-1.727-0.78-3.599-0.408-5.402s1.242-3.466 2.511-4.8c1.269-1.334 2.888-2.285 4.67-2.745v5.277c-0.748 0.432-1.37 1.054-1.802 1.802s-0.66 1.598-0.659 2.462 0.228 1.713 0.66 2.462c0.432 0.748 1.054 1.37 1.802 1.802s1.598 0.659 2.462 0.659c0.864-0 1.713-0.228 2.462-0.66s1.37-1.054 1.802-1.803 0.659-1.598 0.659-2.462v-19.077h4.938c0.154 2.23 1.11 4.329 2.691 5.909s3.68 2.536 5.909 2.691v4.923z"></path>
        </symbol>
        <symbol id="telegram" viewBox="0 0 35 32">
            <path d="M32.736 1.728c-0.264-0.228-0.585-0.38-0.929-0.439s-0.697-0.024-1.023 0.103l-29.52 11.6c-0.384 0.153-0.708 0.425-0.925 0.776s-0.314 0.763-0.278 1.175c0.036 0.411 0.203 0.8 0.478 1.109s0.641 0.52 1.045 0.604l8.016 1.616v9.888c-0.005 0.381 0.106 0.754 0.317 1.071s0.514 0.563 0.867 0.705c0.239 0.095 0.494 0.144 0.752 0.144 0.25 0 0.497-0.049 0.728-0.145s0.44-0.237 0.616-0.415l4.576-4.576 6.752 5.936c0.346 0.313 0.797 0.485 1.264 0.48 0.201-0 0.401-0.033 0.592-0.096 0.314-0.103 0.597-0.285 0.822-0.529s0.382-0.541 0.459-0.863l6.016-26.272c0.079-0.339 0.062-0.694-0.048-1.024s-0.309-0.624-0.576-0.848zM1.328 14.832c-0.019-0.139 0.010-0.28 0.083-0.399s0.185-0.21 0.317-0.257l27.072-10.624-18.704 13.504-8.256-1.648c-0.137-0.025-0.263-0.095-0.356-0.199s-0.148-0.237-0.156-0.377zM11.968 28.608c-0.087 0.090-0.199 0.152-0.322 0.178s-0.25 0.014-0.366-0.034c-0.118-0.048-0.219-0.13-0.29-0.235s-0.109-0.23-0.11-0.357v-9.008l5.616 4.944-4.528 4.512zM32.112 3.328l-6.016 26.256c-0.024 0.109-0.077 0.209-0.153 0.291s-0.172 0.141-0.279 0.173c-0.103 0.037-0.215 0.045-0.322 0.022s-0.206-0.075-0.286-0.15l-13.792-12.128 20.752-14.992c0.052 0.076 0.088 0.163 0.104 0.254s0.014 0.184-0.008 0.274z"></path>
        </symbol>
        <symbol id="instagram" viewBox="0 0 32 32">
            <path d="M16 8.667c-1.45 0-2.868 0.43-4.074 1.236s-2.146 1.951-2.701 3.291c-0.555 1.34-0.7 2.814-0.417 4.237s0.981 2.729 2.007 3.755c1.026 1.026 2.332 1.724 3.755 2.007s2.897 0.138 4.237-0.417c1.34-0.555 2.485-1.495 3.291-2.701s1.236-2.624 1.236-4.074c0-1.945-0.773-3.81-2.148-5.185s-3.241-2.148-5.185-2.148zM16 22c-1.187 0-2.347-0.352-3.333-1.011s-1.756-1.596-2.21-2.693c-0.454-1.096-0.573-2.303-0.341-3.467s0.803-2.233 1.642-3.072c0.839-0.839 1.908-1.411 3.072-1.642s2.37-0.113 3.467 0.341c1.096 0.454 2.033 1.223 2.693 2.21s1.011 2.147 1.011 3.333c0 1.591-0.632 3.117-1.757 4.243s-2.651 1.757-4.243 1.757zM23.333 0h-14.667c-2.299 0-4.503 0.913-6.128 2.538s-2.538 3.83-2.538 6.128v14.667c0 1.138 0.224 2.265 0.66 3.317s1.074 2.007 1.879 2.812c1.625 1.625 3.83 2.538 6.128 2.538h14.667c1.138 0 2.265-0.224 3.317-0.66s2.007-1.074 2.812-1.879 1.443-1.76 1.879-2.812c0.436-1.051 0.66-2.178 0.66-3.317v-14.667c0-1.138-0.224-2.265-0.66-3.317s-1.074-2.007-1.879-2.812-1.76-1.443-2.812-1.879c-1.051-0.436-2.178-0.66-3.317-0.66zM30.667 23.333c0 1.945-0.773 3.81-2.148 5.185s-3.241 2.148-5.185 2.148h-14.667c-1.945 0-3.81-0.773-5.185-2.148s-2.148-3.241-2.148-5.185v-14.667c0-1.945 0.773-3.81 2.148-5.185s3.241-2.148 5.185-2.148h14.667c1.945 0 3.81 0.773 5.185 2.148s2.148 3.241 2.148 5.185v14.667zM26 7.333c0 0.264-0.078 0.521-0.225 0.741s-0.355 0.39-0.598 0.491c-0.244 0.101-0.512 0.127-0.77 0.076s-0.496-0.178-0.683-0.365c-0.187-0.186-0.313-0.424-0.365-0.683s-0.025-0.527 0.076-0.77c0.101-0.244 0.272-0.452 0.491-0.598s0.477-0.225 0.741-0.225c0.354 0 0.693 0.14 0.943 0.391s0.391 0.589 0.391 0.943z"></path>
        </symbol>
    </defs>
</svg>