<svg version="1.0" xmlns="http://www.w3.org/2000/svg" width="3498.667" height="3498.667" viewBox="0 0 2624 2624"><path d="M1466 1310v398h1158V912H1466v398zm447 8.5V1502h-104v-367h104v183.5zm391-134v49.5h-101l-.2 133.7-.3 133.8h-104l-.3-133.8-.2-133.7h-101v-99h307v49.5zM0 1313.5V1712h1164.5l45.1-65.3c24.8-35.8 86.6-125.2 137.3-198.4 59.9-86.5 92-133.7 91.5-134.5-.5-.7-16.3-23.8-35.3-51.3-18.9-27.5-55.2-80.2-80.6-117-25.4-36.9-71.3-103.5-102-148-30.6-44.6-56.3-81.3-56.9-81.7-.6-.4-262.7-.8-582.3-.8H0v398.5zm481.2-188.4c36.7 3.7 66.7 14.9 95.2 35.4 8.4 6 27.4 21.6 27.5 22.6.1.3-14.6 18.4-32.5 40.2l-32.6 39.7-3.6-3.1c-26.9-22.8-40.6-30.7-60.4-34.9-13.1-2.8-33.6-2.8-43.6 0-28.2 7.8-49.7 31.1-58.4 63-1.9 7.2-2.2 10.9-2.2 25 0 14 .3 17.9 2.3 25.5 4.7 18.3 15.6 36.1 28.4 46.6 7.3 5.9 21.7 13.2 30.2 15.4 21.1 5.4 46.7 3.3 67.9-5.5 4.1-1.7 8-3.7 8.6-4.5.7-.8 1-5.4.8-12.6l-.3-11.4-36.7-.3-36.8-.2v-94h175v168l-9.7 8c-31.3 25.9-69.6 43.5-110.3 50.5-14.8 2.6-50 3.2-65.3 1.1-44.2-6.1-80.4-23.4-108.9-52-25.3-25.4-41.6-56.6-49.4-94.6-2.6-12.8-2.8-14.9-2.8-40 0-24.9.1-27.2 2.6-38.5 6.4-28.9 16.8-52.7 32.6-74.5 29.5-40.5 75.2-67.5 125.7-74.4 12.3-1.7 42.8-2 56.7-.5zm449.8 3.8c37.5 6.8 67.4 20.9 94 44.3 69.8 61.4 83.2 169.6 30.6 247.7-43.1 64-122.2 94.7-202.1 78.5-65.7-13.3-117.6-58.3-139.3-120.9-13.6-39.2-13.9-84.7-.7-123.9 22.2-66.7 77.7-113.7 148-125.5 17.1-2.9 17.9-2.9 39.5-2.5 13.4.2 22.8 1 30 2.3z"/><path d="M878.5 1226.4c-31.6 6-55.7 29.9-64.8 63.8-3.2 12.1-3.1 36.6.1 48.8 6.9 26.2 24.4 48 46.7 58.1 12.4 5.6 20.7 7.3 35.5 7.4 15.6 0 25.5-2.1 37.4-8.2 23.4-11.7 40-34.4 45.1-61.8 2-10.3 2.2-27.1.5-36.5-5.9-33.6-28.1-59.8-59-69.5-10.5-3.3-30.2-4.3-41.5-2.1z"/></svg>