<?xml version="1.0" standalone="no"?>
<!DOCTYPE svg PUBLIC "-//W3C//DTD SVG 20010904//EN"
 "http://www.w3.org/TR/2001/REC-SVG-20010904/DTD/svg10.dtd">
<svg version="1.0" xmlns="http://www.w3.org/2000/svg"
 width="2624.000000pt" height="2624.000000pt" viewBox="0 0 2624.000000 2624.000000"
 preserveAspectRatio="xMidYMid meet">
<metadata>
Created by potrace 1.14, written by Peter Selinger 2001-2017
</metadata>
<g transform="translate(0.000000,2624.000000) scale(0.100000,-0.100000)"
fill="#000000" stroke="none">
<path d="M14660 13140 l0 -3980 5790 0 5790 0 0 3980 0 3980 -5790 0 -5790 0
0 -3980z m4470 -85 l0 -1835 -520 0 -520 0 0 1835 0 1835 520 0 520 0 0 -1835z
m3910 1340 l0 -495 -505 0 -505 0 -2 -1337 -3 -1338 -520 0 -520 0 -3 1338 -2
1337 -505 0 -505 0 0 495 0 495 1535 0 1535 0 0 -495z"/>
<path d="M0 13105 l0 -3985 5823 0 5822 0 451 653 c248 358 866 1252 1373
1984 599 865 920 1337 915 1345 -5 7 -163 238 -353 513 -189 275 -552 802
-806 1170 -254 369 -713 1035 -1020 1480 -306 446 -563 813 -569 817 -6 4
-2627 8 -5823 8 l-5813 0 0 -3985z m4812 1884 c367 -37 667 -149 952 -354 84
-60 274 -216 275 -226 1 -3 -146 -184 -325 -402 l-326 -397 -36 31 c-269 228
-406 307 -604 349 -131 28 -336 28 -436 0 -282 -78 -497 -311 -584 -630 -19
-72 -22 -109 -22 -250 0 -140 3 -179 23 -255 47 -183 156 -361 284 -466 73
-59 217 -132 302 -154 211 -54 467 -33 679 55 41 17 80 37 86 45 7 8 10 54 8
126 l-3 114 -367 3 -368 2 0 470 0 470 875 0 875 0 0 -840 0 -840 -97 -80
c-313 -259 -696 -435 -1103 -505 -148 -26 -500 -32 -653 -11 -442 61 -804 234
-1089 520 -253 254 -416 566 -494 946 -26 128 -28 149 -28 400 0 249 1 272 26
385 64 289 168 527 326 745 295 405 752 675 1257 744 123 17 428 20 567 5z
m4498 -38 c375 -68 674 -209 940 -443 698 -614 832 -1696 306 -2477 -431 -640
-1222 -947 -2021 -785 -657 133 -1176 583 -1393 1209 -136 392 -139 847 -7
1239 222 667 777 1137 1480 1255 171 29 179 29 395 25 134 -2 228 -10 300 -23z"/>
<path d="M8785 13976 c-316 -60 -557 -299 -648 -638 -32 -121 -31 -366 1 -488
69 -262 244 -480 467 -581 124 -56 207 -73 355 -74 156 0 255 21 374 82 234
117 400 344 451 618 20 103 22 271 5 365 -59 336 -281 598 -590 695 -105 33
-302 43 -415 21z"/>
</g>
</svg>
