<svg width="82" height="25" fill="none" xmlns="http://www.w3.org/2000/svg"><g clip-path="url(#clip0)"><path d="M27.887 9.383c-1.673 0-2.935 1.338-2.935 3.114 0 1.775 1.275 3.113 2.965 3.113 1.673 0 2.934-1.338 2.934-3.114 0-1.775-1.274-3.113-2.964-3.113zM36.366.127H0V25h36.366l8.587-12.41L36.367.127zm-17.35 16.308l-.085.072c-1.358 1.16-2.93 1.749-4.672 1.749-1.647 0-3.133-.58-4.183-1.634-1.041-1.046-1.615-2.51-1.615-4.126 0-1.55.583-2.995 1.643-4.065 1.076-1.092 2.544-1.693 4.143-1.693 1.802 0 3.048.441 4.309 1.521l.18.154-1.772 2.151-.184-.154c-.773-.65-1.449-1.027-2.612-1.027-1.543 0-2.799 1.397-2.799 3.114 0 1.821 1.247 3.143 2.965 3.143.756 0 1.428-.181 1.952-.526v-1.157h-2.34v-2.51h5.07v4.988zm13.08.13c-1.09 1.09-2.586 1.69-4.209 1.69-1.623 0-3.115-.596-4.195-1.68-1.063-1.066-1.649-2.513-1.649-4.079a5.721 5.721 0 01.426-2.203 5.681 5.681 0 011.239-1.864c1.09-1.091 2.586-1.69 4.21-1.69 1.623 0 3.114.598 4.194 1.681 1.063 1.067 1.649 2.514 1.649 4.08a5.72 5.72 0 01-.427 2.201 5.68 5.68 0 01-1.238 1.863z" fill="#000"/><path d="M8.686 12.517c0-2.98 2.3-5.422 5.447-5.422 1.87 0 2.998.51 4.082 1.438l-1.44 1.752c-.801-.674-1.514-1.063-2.716-1.063-1.663 0-2.984 1.483-2.984 3.295 0 1.917 1.307 3.325 3.147 3.325.831 0 1.573-.21 2.152-.63v-1.497h-2.3v-1.994h4.512v4.553c-1.069.914-2.538 1.663-4.438 1.663-3.236 0-5.462-2.292-5.462-5.42zm13.782.073c0-2.98 2.332-5.422 5.536-5.422 3.204 0 5.507 2.412 5.507 5.422 0 2.98-2.332 5.422-5.536 5.422-3.204 0-5.507-2.411-5.507-5.422zm8.653 0c0-1.797-1.306-3.295-3.146-3.295-1.841 0-3.117 1.468-3.117 3.295 0 1.797 1.306 3.295 3.146 3.295 1.84 0 3.117-1.468 3.117-3.295z" fill="#fff" stroke="#fff" stroke-miterlimit="10"/><path d="M82.143 0h-36.32v24.873h36.32V0z" fill="#FF6C00"/><path d="M57.013 7.455h2.285v10.484h-2.285V7.455zm9.047 2.127h-3.162V7.455h8.61v2.127h-3.162v8.357H66.06V9.582z" fill="#fff" stroke="#fff" stroke-miterlimit="10"/></g><defs><clipPath id="clip0"><path fill="#fff" d="M0 0h82v25H0z"/></clipPath></defs></svg>