<svg aria-hidden="true" style="position:absolute;width:0;height:0" xmlns="http://www.w3.org/2000/svg" overflow="hidden"><defs><symbol id="icon-dots" viewBox="0 0 156 32"><path fill="var(--color1, #4d6fd3)" d="M16.02 31.983c8.84 0 16.006-7.16 16.006-15.992S24.86-.001 16.02-.001.014 7.159.014 15.991 7.18 31.983 16.02 31.983z"/><path fill="var(--color2, #fd9029)" d="M76.006 31.983c8.84 0 16.006-7.16 16.006-15.992S84.846-.001 76.006-.001 60 7.159 60 15.991s7.166 15.992 16.006 15.992z"/><path fill="var(--color3, #d24cb1)" d="M136.006 31.983c8.84 0 16.006-7.16 16.006-15.992S144.846-.001 136.006-.001 120 7.159 120 15.991s7.166 15.992 16.006 15.992z"/></symbol><symbol id="icon-mobile-menu" viewBox="0 0 53 32"><path fill="var(--color1, #4141e4)" d="M0 0h52.437v3.429H0V0zm0 14.117h52.437v3.429H0v-3.429zm52.437 14.119H0v3.429h52.437v-3.429z"/></symbol><symbol id="icon-close-menu" viewBox="0 0 32 32"><path d="M23.959 22.043l-6.23-6.193 6.089-6.089c.531-.531.531-1.385 0-1.915s-1.385-.531-1.915 0l-6.052 6.09-5.949-5.949c-.531-.531-1.385-.531-1.915 0s-.53 1.385 0 1.915l5.939 5.939-6.071 6.071c-.53.53-.531 1.385 0 1.915s1.385.53 1.915 0l6.071-6.071 6.202 6.202c.531.531 1.385.53 1.915 0s.526-1.39 0-1.916z"/></symbol><symbol id="icon-menu" viewBox="0 0 66 32"><path d="M62.002 4H2.001a2 2 0 010-4h60.001a2 2 0 010 4zM2.001 14h60.001a2 2 0 010 4H2.001a2 2 0 010-4zm0 14h40.001a2 2 0 010 4H2.001a2 2 0 010-4z"/></symbol><symbol id="icon-shuttle" viewBox="0 0 32 32"><path fill="var(--color1, #e45a6e)" d="M13.862 8.72a.939.939 0 00-.877-.453l-7.618.588a2.477 2.477 0 00-1.885 1.109L.285 14.8c-.324.489-.375 1.102-.138 1.638s.725.91 1.305 1l6.177.957a.94.94 0 00.934-.422l5.285-8.268a.937.937 0 00.014-.986z"/><path fill="var(--color2, #d82e44)" d="M23.279 18.137a.938.938 0 00-.987.014l-8.268 5.285a.939.939 0 00-.422.933l.957 6.178a1.709 1.709 0 001.695 1.452c.33 0 .658-.096.944-.285l4.836-3.197a2.474 2.474 0 001.109-1.885l.589-7.618a.94.94 0 00-.453-.877z"/><path fill="var(--color3, #f1f1fb)" d="M12.054 25.766c.373.373.903.548 1.424.461 7.632-1.276 13.671-7.595 15.97-12.04 2.553-4.936 2.648-10.152 2.514-12.598A1.644 1.644 0 0030.41.037c-2.446-.133-7.662-.039-12.598 2.514-4.445 2.299-10.764 8.338-12.04 15.97-.087.52.088 1.051.461 1.424l5.821 5.821z"/><path fill="var(--color4, #d7d6fb)" d="M31.484.515l-22.34 22.34 2.911 2.911c.373.373.903.548 1.424.461 7.632-1.276 13.671-7.595 15.97-12.04 2.553-4.936 2.648-10.152 2.514-12.598a1.637 1.637 0 00-.479-1.073z"/><path fill="var(--color5, #466288)" d="M21.92 14.764a4.67 4.67 0 01-3.314-1.371c-.885-.885-1.373-2.063-1.373-3.315s.488-2.429 1.373-3.314a4.692 4.692 0 016.629 0c.885.885 1.373 2.063 1.373 3.314s-.488 2.429-1.373 3.315a4.673 4.673 0 01-3.315 1.371zm-2.651-7.337zM5.772 18.521c-.087.52.088 1.051.461 1.424l5.821 5.821c.373.373.903.548 1.424.461a18.752 18.752 0 004.734-1.478L7.251 13.788a18.717 18.717 0 00-1.478 4.733z"/><path fill="var(--color6, #fdb43a)" d="M.957 26.37c.24 0 .48-.092.663-.275l3.061-3.061a.938.938 0 00-1.326-1.326L.294 24.769a.938.938 0 00.663 1.601zm6.528-1.856a.938.938 0 00-1.326 0L.274 30.399A.938.938 0 001.6 31.725l5.885-5.885a.938.938 0 000-1.326z"/><path fill="var(--color7, #f57a21)" d="M10.29 27.319a.938.938 0 00-1.326 0L5.903 30.38a.938.938 0 001.326 1.326l3.061-3.061a.938.938 0 000-1.326zM.275 31.724a.935.935 0 001.326 0l5.885-5.885a.938.938 0 000-1.326l-7.21 7.211z"/><path fill="var(--color8, #354a67)" d="M9.143 22.856l2.911 2.911c.373.373.903.548 1.424.461a18.752 18.752 0 004.734-1.478l-5.48-5.481-3.588 3.587zm9.463-9.463c.914.914 2.114 1.371 3.315 1.371s2.401-.457 3.315-1.371c.885-.885 1.373-2.063 1.373-3.315s-.488-2.429-1.373-3.315l-6.629 6.629z"/><path fill="var(--color9, #4bbefd)" d="M21.92 7.267a2.807 2.807 0 00-2.813 2.811 2.814 2.814 0 005.625 0c0-.751-.293-1.457-.824-1.989a2.803 2.803 0 00-1.989-.822z"/><path fill="var(--color10, #0590fb)" d="M23.909 8.09l-3.977 3.977a2.814 2.814 0 004.801-1.989c0-.751-.293-1.457-.824-1.989z"/></symbol><symbol id="icon-css" viewBox="0 0 32 32"><path fill="var(--color1, #cfd2fc)" d="M24.5 30.5h-17a3.004 3.004 0 01-3-3v-23a3.004 3.004 0 013-3h14l6 6v20a3.004 3.004 0 01-3 3z"/><path fill="var(--color2, #d24cb1)" d="M4.5 22.5h23v5a3.004 3.004 0 01-3 3h-17a3.004 3.004 0 01-3-3v-5z"/><path fill="var(--color3, #8690fa)" d="M27.5 7.5h-3a3.004 3.004 0 01-3-3v-3l6 6zM16 13a.5.5 0 100-1 .5.5 0 000 1zm0 2a.5.5 0 100-1 .5.5 0 000 1zm-6.5-1a.498.498 0 01-.5-.5.498.498 0 01.5-.5c.133 0 .26-.053.353-.147s.146-.221.147-.353v-2A1.5 1.5 0 0111.5 9a.498.498 0 01.5.5.498.498 0 01-.5.5c-.133 0-.26.053-.353.147s-.146.221-.147.353v2A1.5 1.5 0 019.5 14z"/><path fill="var(--color3, #8690fa)" d="M11.5 18a1.5 1.5 0 01-1.5-1.5v-2c0-.133-.053-.26-.147-.353S9.632 14.001 9.5 14a.498.498 0 01-.5-.5.498.498 0 01.5-.5 1.5 1.5 0 011.5 1.5v2c0 .133.053.26.147.353s.221.146.353.147a.498.498 0 01.5.5.498.498 0 01-.5.5zm9 0a.498.498 0 01-.5-.5.498.498 0 01.5-.5c.133 0 .26-.053.353-.147s.146-.221.147-.353v-2a1.5 1.5 0 011.5-1.5.498.498 0 01.5.5.498.498 0 01-.5.5c-.133 0-.26.053-.353.147s-.146.221-.147.353v2a1.5 1.5 0 01-1.5 1.5z"/><path fill="var(--color3, #8690fa)" d="M22.5 14a1.5 1.5 0 01-1.5-1.5v-2c0-.133-.053-.26-.147-.353s-.221-.146-.353-.147a.498.498 0 01-.5-.5.498.498 0 01.5-.5 1.5 1.5 0 011.5 1.5v2c0 .133.053.26.147.353s.221.146.353.147a.498.498 0 01.5.5.498.498 0 01-.5.5z"/><path fill="var(--color4, #fff)" d="M16 25h1a.498.498 0 00.5-.5.498.498 0 00-.5-.5h-1a1.503 1.503 0 00-1.5 1.5A1.503 1.503 0 0016 27a.498.498 0 01.5.5.498.498 0 01-.5.5h-1a.498.498 0 00-.5.5.498.498 0 00.5.5h1a1.503 1.503 0 001.5-1.5A1.503 1.503 0 0016 26a.498.498 0 01-.5-.5.498.498 0 01.5-.5zm4 0h1a.498.498 0 00.5-.5.498.498 0 00-.5-.5h-1a1.503 1.503 0 00-1.5 1.5A1.503 1.503 0 0020 27a.498.498 0 01.5.5.498.498 0 01-.5.5h-1a.498.498 0 00-.5.5.498.498 0 00.5.5h1a1.503 1.503 0 001.5-1.5A1.503 1.503 0 0020 26a.498.498 0 01-.5-.5.498.498 0 01.5-.5zm-7.5 0c.099 0 .197.023.287.066a.501.501 0 00.683-.621.497.497 0 00-.257-.283 1.66 1.66 0 00-.713-.161c-1.103 0-2 1.121-2 2.5s.897 2.5 2 2.5c.247 0 .49-.055.713-.161a.497.497 0 00.287-.476.492.492 0 00-.163-.346.506.506 0 00-.549-.083.666.666 0 01-.287.066c-.542 0-1-.687-1-1.5s.458-1.5 1-1.5z"/></symbol><symbol id="icon-js" viewBox="0 0 32 32"><path fill="var(--color1, #cfd2fc)" d="M24.5 30.5h-17a3.004 3.004 0 01-3-3v-23a3.004 3.004 0 013-3h14l6 6v20a3.004 3.004 0 01-3 3z"/><path fill="var(--color5, #ff7111)" d="M4.5 22.5h23v5a3.004 3.004 0 01-3 3h-17a3.004 3.004 0 01-3-3v-5z"/><path fill="var(--color3, #8690fa)" d="M27.5 7.5h-3a3.004 3.004 0 01-3-3v-3l6 6zM18 14a.5.5 0 100-1 .5.5 0 000 1zm-4 0a.5.5 0 100-1 .5.5 0 000 1zm2 0a.5.5 0 100-1 .5.5 0 000 1zm-4.5 3c-.133 0-.26-.053-.353-.147s-.146-.221-.147-.353v-2c0-.369-.136-.725-.383-1 .247-.275.383-.631.383-1v-2c0-.133.053-.26.147-.353s.221-.146.353-.147a.498.498 0 00.5-.5.498.498 0 00-.5-.5 1.5 1.5 0 00-1.5 1.5v2c0 .133-.053.26-.147.353s-.221.146-.353.147a.498.498 0 00-.5.5.498.498 0 00.5.5c.133 0 .26.053.353.147s.146.221.147.353v2a1.5 1.5 0 001.5 1.5.498.498 0 00.5-.5.498.498 0 00-.5-.5zm11-4c-.133 0-.26-.053-.353-.147s-.146-.221-.147-.353v-2A1.5 1.5 0 0020.5 9a.498.498 0 00-.5.5.498.498 0 00.5.5c.133 0 .26.053.353.147s.146.221.147.353v2c0 .369.136.726.383 1a1.494 1.494 0 00-.383 1v2c0 .133-.053.26-.147.353s-.221.146-.353.147a.498.498 0 00-.5.5.498.498 0 00.5.5 1.5 1.5 0 001.5-1.5v-2c0-.133.053-.26.147-.353s.221-.146.353-.147a.498.498 0 00.5-.5.498.498 0 00-.5-.5z"/><path fill="var(--color4, #fff)" d="M15 24a.498.498 0 00-.5.5v3a.498.498 0 01-.5.5.498.498 0 01-.5-.5.498.498 0 00-.5-.5.498.498 0 00-.5.5A1.503 1.503 0 0014 29a1.503 1.503 0 001.5-1.5v-3a.498.498 0 00-.5-.5zm3 1h1a.498.498 0 00.5-.5.498.498 0 00-.5-.5h-1a1.503 1.503 0 00-1.5 1.5A1.503 1.503 0 0018 27a.498.498 0 01.5.5.498.498 0 01-.5.5h-1a.498.498 0 00-.5.5.498.498 0 00.5.5h1a1.503 1.503 0 001.5-1.5A1.503 1.503 0 0018 26a.498.498 0 01-.5-.5.498.498 0 01.5-.5z"/></symbol><symbol id="icon-php" viewBox="0 0 32 32"><path fill="var(--color1, #cfd2fc)" d="M24.5 30.5h-17a3.004 3.004 0 01-3-3v-23a3.004 3.004 0 013-3h14l6 6v20a3.004 3.004 0 01-3 3z"/><path fill="var(--color6, #5153ff)" d="M4.5 22.5h23v5a3.004 3.004 0 01-3 3h-17a3.004 3.004 0 01-3-3v-5z"/><path fill="var(--color3, #8690fa)" d="M27.5 7.5h-3a3.004 3.004 0 01-3-3v-3l6 6zM12 17a.497.497 0 01-.353-.146l-3-3a.505.505 0 01-.108-.544.495.495 0 01.108-.162l3-3a.5.5 0 01.854.354c0 .133-.053.26-.146.354l-2.646 2.646 2.646 2.646a.498.498 0 01-.075.769.5.5 0 01-.278.084zm8 0a.5.5 0 01-.353-.853l2.646-2.646-2.646-2.646a.5.5 0 01.354-.854c.133 0 .26.053.354.146l3 3a.505.505 0 01.108.544.505.505 0 01-.108.162l-3 3a.497.497 0 01-.353.147zm-4 1a.5.5 0 100-1 .5.5 0 000 1zm0-2a.498.498 0 01-.5-.5v-2a.498.498 0 01.5-.5 1.495 1.495 0 001.385-.926 1.496 1.496 0 00-.325-1.635 1.497 1.497 0 00-2.308.227 1.5 1.5 0 00-.253.833.498.498 0 01-.5.5.498.498 0 01-.5-.5 2.498 2.498 0 014.871-.791 2.5 2.5 0 01-1.872 3.241v1.55a.498.498 0 01-.5.5z"/><path fill="var(--color4, #fff)" d="M20 24h-1a.498.498 0 00-.5.5v4a.498.498 0 00.5.5.498.498 0 00.5-.5V27h.5a1.503 1.503 0 001.5-1.5A1.503 1.503 0 0020 24zm0 2h-.5v-1h.5a.498.498 0 01.5.5.498.498 0 01-.5.5zm-8-2h-1a.498.498 0 00-.5.5v4a.498.498 0 00.5.5.498.498 0 00.5-.5V27h.5a1.503 1.503 0 001.5-1.5A1.503 1.503 0 0012 24zm0 2h-.5v-1h.5a.498.498 0 01.5.5.498.498 0 01-.5.5zm5-2a.498.498 0 00-.5.5V26h-1v-1.5a.498.498 0 00-.5-.5.498.498 0 00-.5.5v4a.498.498 0 00.5.5.498.498 0 00.5-.5V27h1v1.5a.498.498 0 00.5.5.498.498 0 00.5-.5v-4a.498.498 0 00-.5-.5z"/></symbol><symbol id="icon-blue" viewBox="0 0 32 32"><path fill="var(--color1, #4d6fd3)" d="M32 16c0 8.837-7.163 16-16 16S0 24.837 0 16 7.163 0 16 0s16 7.163 16 16z"/></symbol><symbol id="icon-orange" viewBox="0 0 32 32"><path fill="var(--color2, #fd9029)" d="M32 16c0 8.837-7.163 16-16 16S0 24.837 0 16 7.163 0 16 0s16 7.163 16 16z"/></symbol><symbol id="icon-pink" viewBox="0 0 32 32"><path fill="var(--color3, #d24cb1)" d="M32 16c0 8.837-7.163 16-16 16S0 24.837 0 16 7.163 0 16 0s16 7.163 16 16z"/></symbol></defs></svg>