<svg aria-hidden="true" style="position:absolute;width:0;height:0" xmlns="http://www.w3.org/2000/svg" overflow="hidden"><defs><symbol id="slider-right" viewBox="0 0 105 32"><path d="M1.143 14.973a1.143 1.143 0 000 2.286h100.799a1.143 1.143 0 000-2.286z"/><path d="M90.25 1.143h-.031c-.305 0-.581.119-.786.313h.001a1.143 1.143 0 00-.045 1.616v-.001l12.603 13.263-12.603 13.263a1.137 1.137 0 00-.313.786c0 .327.137.622.357.83h.001a1.139 1.139 0 001.616-.04l13.308-14.013a1.14 1.14 0 00.276-.824v.003a1.136 1.136 0 00-.278-.831l.001.001L91.049 1.5a1.141 1.141 0 00-.797-.357h-.002z"/></symbol><symbol id="slider-left" viewBox="0 0 105 32"><path d="M104 14.974a1.143 1.143 0 010 2.286H3.201a1.143 1.143 0 010-2.286z"/><path d="M14.893 1.143a1.142 1.142 0 00-.799.357l-.001.001L.785 15.51a1.137 1.137 0 00-.312.832v-.002l-.001.036c0 .305.119.581.314.786l13.308 14.013a1.14 1.14 0 001.616.039 1.143 1.143 0 00.045-1.616L3.152 16.335 15.755 3.072c.194-.204.313-.481.313-.786 0-.327-.137-.622-.357-.83h-.001a1.137 1.137 0 00-.786-.313h-.033.002z"/></symbol><symbol id="arrow-big" viewBox="0 0 224 32"><path d="M1.6 14.719a1.6 1.6 0 100 3.2h219.838a1.6 1.6 0 100-3.2z"/><path d="M208.637 1.6a1.593 1.593 0 00-1.596 1.597c0 .443.18.845.472 1.134l12.019 11.988-12.019 11.988a1.597 1.597 0 00-.007 2.262 1.597 1.597 0 002.262.007l13.119-13.087c.29-.29.469-.69.469-1.132v-.074c0-.442-.179-.842-.469-1.132L209.768 2.07a1.593 1.593 0 00-1.131-.469z"/></symbol><symbol id="arrow-small" viewBox="0 0 176 32"><path d="M7.552 14.396a2.667 2.667 0 100 5.334h160.896a2.667 2.667 0 100-5.334z"/><path d="M159.448 5.542a2.659 2.659 0 00-.776 1.88c0 .739.301 1.408.786 1.891l7.906 7.896-7.906 7.885a2.657 2.657 0 00-.786 1.891 2.66 2.66 0 002.661 2.661c.736 0 1.403-.298 1.885-.781l9.781-9.75c.248-.255.446-.56.577-.898l.006-.018c.119-.291.188-.629.188-.982v-.015c0-.354-.069-.691-.194-1l.006.018a2.685 2.685 0 00-.584-.928l.001.001-9.781-9.75c-.483-.482-1.149-.781-1.885-.781s-1.403.298-1.885.781z"/></symbol><symbol id="modal-close" viewBox="0 0 32 32"><path d="M2.667 1.333a1.33 1.33 0 00-1.333 1.334c0 .368.149.701.39.943l12.391 12.391L1.724 28.392a1.332 1.332 0 000 1.886 1.332 1.332 0 001.886 0l12.391-12.391 12.391 12.391a1.332 1.332 0 001.886 0 1.332 1.332 0 000-1.886L17.887 16.001 30.278 3.61a1.332 1.332 0 000-1.886 1.332 1.332 0 00-1.886 0L16.001 14.115 3.61 1.724a1.331 1.331 0 00-.943-.391z"/></symbol><symbol id="tiktok" viewBox="0 0 32 32"><path d="M30.769 8.615a8 8 0 01-8-8A.616.616 0 0022.154 0H16a.616.616 0 00-.615.615v19.692a3.687 3.687 0 01-1.913 3.232 3.688 3.688 0 01-3.754-.115 3.69 3.69 0 01-1.086-5.185 3.686 3.686 0 011.476-1.269.635.635 0 00.354-.554v-6.4a.609.609 0 00-.217-.478.626.626 0 00-.507-.137 11.08 11.08 0 00-8.751 8.057 11.077 11.077 0 1021.782 2.849v-6.554a15.222 15.222 0 008 2.246.616.616 0 00.615-.615V9.23a.616.616 0 00-.615-.615zm-.615 6.139a13.894 13.894 0 01-7.646-2.646.614.614 0 00-.969.508v7.692A9.847 9.847 0 119.23 10.77v5.277a4.928 4.928 0 00-2.461 4.264 4.928 4.928 0 004.924 4.923 4.928 4.928 0 004.264-2.463 4.927 4.927 0 00.659-2.462V1.232h4.938c.154 2.23 1.11 4.329 2.691 5.909s3.68 2.536 5.909 2.691v4.923z"/></symbol><symbol id="telegram" viewBox="0 0 35 32"><path d="M32.736 1.728a1.917 1.917 0 00-1.952-.336l-29.52 11.6a1.916 1.916 0 00-.725 3.06c.275.309.641.52 1.045.604L9.6 18.272v9.888a1.888 1.888 0 001.184 1.776c.239.095.494.144.752.144a1.895 1.895 0 001.344-.56l4.576-4.576 6.752 5.936c.346.313.797.485 1.264.48a1.942 1.942 0 001.873-1.488L33.361 3.6a1.887 1.887 0 00-.624-1.872zM1.328 14.832a.606.606 0 01.4-.656L28.8 3.552 10.096 17.056 1.84 15.408a.618.618 0 01-.512-.576zm10.64 13.776a.628.628 0 01-.978-.091.648.648 0 01-.11-.357v-9.008l5.616 4.944-4.528 4.512zm20.144-25.28l-6.016 26.256a.626.626 0 01-.432.464.589.589 0 01-.608-.128L11.264 17.792 32.016 2.8a.651.651 0 01.096.528z"/></symbol><symbol id="instagram" viewBox="0 0 32 32"><path d="M16 8.667a7.332 7.332 0 00-1.43 14.526 7.333 7.333 0 101.431-14.525zM16 22a5.998 5.998 0 01-4.242-10.243 5.996 5.996 0 016.539-1.301 6.004 6.004 0 013.704 5.543 5.996 5.996 0 01-6 6zm7.333-22H8.666A8.666 8.666 0 000 8.666v14.667a8.663 8.663 0 002.539 6.129A8.667 8.667 0 008.667 32h14.667a8.663 8.663 0 006.129-2.539 8.67 8.67 0 002.539-6.129V8.665a8.663 8.663 0 00-2.539-6.129 8.67 8.67 0 00-6.129-2.539zm7.334 23.333a7.333 7.333 0 01-7.333 7.333H8.667a7.333 7.333 0 01-7.333-7.333V8.666a7.333 7.333 0 017.333-7.333h14.667a7.333 7.333 0 017.333 7.333v14.667zM26 7.333a1.332 1.332 0 01-1.593 1.308 1.332 1.332 0 01-.481-2.416 1.337 1.337 0 011.684.166c.25.251.391.589.391.943z"/></symbol><symbol fill="none" viewBox="0 0 74 9" id="logo-footer"><path fill="#414141" fill-rule="evenodd" d="M34.42 5.103h.958l2.585 3.724h1.56c-.066-.074-.19-.225-.376-.453-.185-.234-.4-.51-.645-.828-.245-.323-.498-.655-.76-.995a82.374 82.374 0 00-.718-.954c-.18-.246-.333-.453-.46-.622l.052-.015c.332-.096.645-.244.939-.446.3-.207.544-.474.735-.803.19-.335.285-.738.285-1.21 0-.86-.296-1.48-.89-1.862-.593-.387-1.369-.58-2.327-.58-.34 0-.653.002-.938.006v.965a23.925 23.925 0 01.882-.017c.75 0 1.29.135 1.616.406.332.27.498.663.498 1.178 0 .493-.18.88-.539 1.161-.36.276-.884.414-1.576.414h-.881v.931zm9.613 3.724c.044-.238.068-.583.073-1.034.011-.451.017-.971.017-1.56v-1.05l-1.625-2.706a43.053 43.053 0 00-.702-1.138c-.229-.371-.515-.78-.858-1.225h1.405l2.425 3.947L47.062.114h1.405c-.36.504-.645.926-.858 1.265-.212.34-.435.706-.67 1.098l-1.657 2.754v1.002c0 .589.003 1.109.008 1.56.011.45.041.796.09 1.034h-1.347zm6.07-.74v.74h6.491V7.73c-.245.037-.601.067-1.07.088-.462.021-.993.032-1.592.032H51.54L56.406.894v-.78H50.47V1.22c.245-.053.558-.085.94-.096.38-.016.873-.023 1.477-.023h2.082l-4.866 6.986zm8.887.74c.043-.238.068-.583.073-1.034.011-.451.017-.971.017-1.56V2.716c0-.589-.006-1.109-.017-1.56A6.69 6.69 0 0058.99.114h5.2V1.1h-3.95v2.69h3.495v.954H60.24V7.85h1.617c.604 0 1.113-.006 1.526-.016.42-.011.752-.037.997-.08v1.074h-5.39zm9.042-6.874l4.866 6.874h1.012V2.716c0-.589.003-1.109.009-1.56A7.16 7.16 0 0174 .114h-1.102v6.9l-4.866-6.9h-1.103c.044.239.068.586.074 1.042.01.451.016.971.016 1.56v3.517c0 .589-.005 1.109-.016 1.56a6.61 6.61 0 01-.074 1.034h1.103V1.953zM2.874 9a5.892 5.892 0 01-1.65-.223C.72 8.63.31 8.437 0 8.204L.278 6.98c.402.34.822.589 1.257.748.44.159.887.239 1.34.239.494 0 .935-.133 1.322-.398.386-.266.58-.64.58-1.122 0-.213-.052-.409-.156-.59-.098-.185-.304-.365-.62-.54-.316-.175-.792-.356-1.429-.541-.637-.186-1.124-.396-1.462-.63-.332-.238-.56-.5-.685-.787a2.47 2.47 0 01-.18-.947c0-.34.098-.695.294-1.066.196-.372.506-.687.93-.947C1.895.133 2.445 0 3.12 0c.474 0 .895.042 1.266.127.375.085.762.22 1.16.406L5.3 1.695c-.44-.233-.827-.4-1.16-.501a3.642 3.642 0 00-1.077-.152c-.49 0-.89.133-1.2.398-.305.26-.458.555-.458.884 0 .217.047.41.14.58.097.165.29.321.579.47.288.149.724.305 1.306.47.811.233 1.432.543 1.862.93.43.388.645.905.645 1.552 0 .53-.139.998-.416 1.4a2.788 2.788 0 01-1.11.94A3.491 3.491 0 012.873 9zm8.928 0a3.58 3.58 0 01-1.846-.51c-.571-.344-1.034-.845-1.388-1.503-.353-.663-.53-1.472-.53-2.427 0-.955.185-1.772.555-2.451.375-.68.86-1.2 1.453-1.56A3.52 3.52 0 0111.924 0c.653 0 1.263.172 1.83.517.57.34 1.03.841 1.379 1.504.354.658.53 1.464.53 2.42 0 .954-.187 1.774-.563 2.458-.37.68-.849 1.2-1.437 1.56A3.503 3.503 0 0111.802 9zm.065-1.034c.746 0 1.364-.298 1.853-.892.496-.6.743-1.427.743-2.482 0-1.104-.239-1.971-.718-2.603-.474-.63-1.1-.947-1.878-.947-.773 0-1.407.305-1.902.916-.49.604-.735 1.424-.735 2.458 0 1.088.24 1.953.718 2.595.485.636 1.124.955 1.919.955zm6.43-.144c-.006.451-.03.796-.074 1.035h1.347c-.05-.234-.079-.576-.09-1.027-.005-.45-.008-.973-.008-1.567V4.83h3.552v-.955h-3.552V1.13h4.074V.143h-5.323c.043.239.068.592.073 1.059.011.461.017.984.017 1.567v3.494c0 .588-.006 1.108-.017 1.56zm9.907 1.035c.054-.239.087-.584.098-1.035.016-.45.024-.97.024-1.56V1.13H26.89c-.272 0-.53.008-.776.024-.24.01-.481.042-.726.095V.143h7.079V1.25a4.356 4.356 0 00-.735-.095c-.24-.016-.495-.024-.768-.024h-1.47v5.133c0 .588.006 1.108.017 1.56.016.45.052.795.106 1.034h-1.412z" clip-rule="evenodd"/></symbol></defs></svg>