<svg aria-hidden="true" style="position:absolute;width:0;height:0" xmlns="http://www.w3.org/2000/svg" overflow="hidden"><defs><symbol id="slider-right" viewBox="0 0 105 32"><path d="M1.143 14.973a1.143 1.143 0 000 2.286h100.799a1.143 1.143 0 000-2.286z"/><path d="M90.25 1.143h-.031c-.305 0-.581.119-.786.313h.001a1.143 1.143 0 00-.045 1.616v-.001l12.603 13.263-12.603 13.263a1.137 1.137 0 00-.313.786c0 .327.137.622.357.83h.001a1.139 1.139 0 001.616-.04l13.308-14.013a1.14 1.14 0 00.276-.824v.003a1.136 1.136 0 00-.278-.831l.001.001L91.049 1.5a1.141 1.141 0 00-.797-.357h-.002z"/></symbol><symbol id="slider-left" viewBox="0 0 105 32"><path d="M104 14.974a1.143 1.143 0 010 2.286H3.201a1.143 1.143 0 010-2.286z"/><path d="M14.893 1.143a1.142 1.142 0 00-.799.357l-.001.001L.785 15.51a1.137 1.137 0 00-.312.832v-.002l-.001.036c0 .305.119.581.314.786l13.308 14.013a1.14 1.14 0 001.616.039 1.143 1.143 0 00.045-1.616L3.152 16.335 15.755 3.072c.194-.204.313-.481.313-.786 0-.327-.137-.622-.357-.83h-.001a1.137 1.137 0 00-.786-.313h-.033.002z"/></symbol><symbol id="arrow-big" viewBox="0 0 224 32"><path d="M1.6 14.719a1.6 1.6 0 100 3.2h219.838a1.6 1.6 0 100-3.2z"/><path d="M208.637 1.6a1.593 1.593 0 00-1.596 1.597c0 .443.18.845.472 1.134l12.019 11.988-12.019 11.988a1.597 1.597 0 00-.007 2.262 1.597 1.597 0 002.262.007l13.119-13.087c.29-.29.469-.69.469-1.132v-.074c0-.442-.179-.842-.469-1.132L209.768 2.07a1.593 1.593 0 00-1.131-.469z"/></symbol><symbol id="arrow-small" viewBox="0 0 176 32"><path d="M7.552 14.396a2.667 2.667 0 100 5.334h160.896a2.667 2.667 0 100-5.334z"/><path d="M159.448 5.542a2.659 2.659 0 00-.776 1.88c0 .739.301 1.408.786 1.891l7.906 7.896-7.906 7.885a2.657 2.657 0 00-.786 1.891 2.66 2.66 0 002.661 2.661c.736 0 1.403-.298 1.885-.781l9.781-9.75c.248-.255.446-.56.577-.898l.006-.018c.119-.291.188-.629.188-.982v-.015c0-.354-.069-.691-.194-1l.006.018a2.685 2.685 0 00-.584-.928l.001.001-9.781-9.75c-.483-.482-1.149-.781-1.885-.781s-1.403.298-1.885.781z"/></symbol><symbol id="tiktok" viewBox="0 0 32 32"><path d="M30.769 8.615a8 8 0 01-8-8A.616.616 0 0022.154 0H16a.616.616 0 00-.615.615v19.692a3.687 3.687 0 01-1.913 3.232 3.688 3.688 0 01-3.754-.115 3.69 3.69 0 01-1.086-5.185 3.686 3.686 0 011.476-1.269.635.635 0 00.354-.554v-6.4a.609.609 0 00-.217-.478.626.626 0 00-.507-.137 11.08 11.08 0 00-8.751 8.057 11.077 11.077 0 1021.782 2.849v-6.554a15.222 15.222 0 008 2.246.616.616 0 00.615-.615V9.23a.616.616 0 00-.615-.615zm-.615 6.139a13.894 13.894 0 01-7.646-2.646.614.614 0 00-.969.508v7.692A9.847 9.847 0 119.23 10.77v5.277a4.928 4.928 0 00-2.461 4.264 4.928 4.928 0 004.924 4.923 4.928 4.928 0 004.264-2.463 4.927 4.927 0 00.659-2.462V1.232h4.938c.154 2.23 1.11 4.329 2.691 5.909s3.68 2.536 5.909 2.691v4.923z"/></symbol><symbol id="telegram" viewBox="0 0 35 32"><path d="M32.736 1.728a1.917 1.917 0 00-1.952-.336l-29.52 11.6a1.916 1.916 0 00-.725 3.06c.275.309.641.52 1.045.604L9.6 18.272v9.888a1.888 1.888 0 001.184 1.776c.239.095.494.144.752.144a1.895 1.895 0 001.344-.56l4.576-4.576 6.752 5.936c.346.313.797.485 1.264.48a1.942 1.942 0 001.873-1.488L33.361 3.6a1.887 1.887 0 00-.624-1.872zM1.328 14.832a.606.606 0 01.4-.656L28.8 3.552 10.096 17.056 1.84 15.408a.618.618 0 01-.512-.576zm10.64 13.776a.628.628 0 01-.978-.091.648.648 0 01-.11-.357v-9.008l5.616 4.944-4.528 4.512zm20.144-25.28l-6.016 26.256a.626.626 0 01-.432.464.589.589 0 01-.608-.128L11.264 17.792 32.016 2.8a.651.651 0 01.096.528z"/></symbol><symbol id="instagram" viewBox="0 0 32 32"><path d="M16 8.667a7.332 7.332 0 00-1.43 14.526 7.333 7.333 0 101.431-14.525zM16 22a5.998 5.998 0 01-4.242-10.243 5.996 5.996 0 016.539-1.301 6.004 6.004 0 013.704 5.543 5.996 5.996 0 01-6 6zm7.333-22H8.666A8.666 8.666 0 000 8.666v14.667a8.663 8.663 0 002.539 6.129A8.667 8.667 0 008.667 32h14.667a8.663 8.663 0 006.129-2.539 8.67 8.67 0 002.539-6.129V8.665a8.663 8.663 0 00-2.539-6.129 8.67 8.67 0 00-6.129-2.539zm7.334 23.333a7.333 7.333 0 01-7.333 7.333H8.667a7.333 7.333 0 01-7.333-7.333V8.666a7.333 7.333 0 017.333-7.333h14.667a7.333 7.333 0 017.333 7.333v14.667zM26 7.333a1.332 1.332 0 01-1.593 1.308 1.332 1.332 0 01-.481-2.416 1.337 1.337 0 011.684.166c.25.251.391.589.391.943z"/></symbol></defs></svg>